<?xml version="1.0" encoding="utf-8"?>
<!-- Generator: Adobe Illustrator 18.1.1, SVG Export Plug-In . SVG Version: 6.00 Build 0)  -->
<svg version="1.1" id="Capa_1" xmlns="http://www.w3.org/2000/svg" xmlns:xlink="http://www.w3.org/1999/xlink" x="0px" y="0px"
	 viewBox="0 0 265.2 361.9" enable-background="new 0 0 265.2 361.9" xml:space="preserve">
<g>
	<path fill="#333333" d="M69.5,164.8v2.3H52.7v10.2h15.7v2.3H52.7v11.1h16.9v2.3H50.1v-28.1H69.5z"/>
	<path fill="#333333" d="M76.1,164.8v25.8h15.8v2.3H73.4v-28.1H76.1z"/>
	<path fill="#333333" d="M107.9,164.8v17.4c0,1.6,0.2,3,0.6,4.2c0.4,1.1,0.9,2.1,1.6,2.8c0.7,0.7,1.6,1.2,2.6,1.6
		c1,0.3,2.2,0.5,3.5,0.5c1.3,0,2.5-0.2,3.5-0.5c1-0.3,1.9-0.9,2.6-1.6c0.7-0.7,1.2-1.7,1.6-2.8c0.4-1.1,0.6-2.5,0.6-4.2v-17.4h2.7
		v18c0,1.4-0.2,2.8-0.6,4.1c-0.4,1.3-1.1,2.4-1.9,3.4c-0.9,1-2,1.7-3.4,2.3c-1.4,0.6-3.1,0.8-5,0.8c-1.9,0-3.6-0.3-5-0.8
		c-1.4-0.6-2.5-1.3-3.4-2.3c-0.9-1-1.5-2.1-1.9-3.4c-0.4-1.3-0.6-2.7-0.6-4.1v-18H107.9z M113.8,162.5l4.1-5.6h3.1l-5.2,5.6H113.8z"
		/>
	<path fill="#333333" d="M135.4,164.8l16.4,23.8h0.1v-23.8h2.7v28.1h-3l-16.4-23.8h-0.1v23.8h-2.7v-28.1H135.4z"/>
	<path fill="#333333" d="M163.1,164.8v28.1h-2.7v-28.1H163.1z"/>
	<path fill="#333333" d="M188.4,170.4c-0.5-0.9-1.2-1.6-2-2.1c-0.8-0.6-1.6-1-2.6-1.3c-0.9-0.3-1.9-0.5-2.9-0.5
		c-1.9,0-3.5,0.4-4.8,1.1s-2.4,1.6-3.3,2.8c-0.9,1.2-1.5,2.5-1.9,4c-0.4,1.5-0.6,3-0.6,4.5c0,1.5,0.2,3,0.6,4.5c0.4,1.5,1,2.8,1.9,4
		c0.9,1.2,1.9,2.1,3.3,2.8s2.9,1.1,4.8,1.1c1.3,0,2.5-0.2,3.5-0.7c1-0.5,2-1.1,2.7-1.9c0.8-0.8,1.4-1.8,1.9-2.9s0.8-2.3,0.9-3.5h2.7
		c-0.2,1.7-0.6,3.3-1.2,4.7c-0.6,1.4-1.4,2.6-2.4,3.5c-1,1-2.2,1.7-3.5,2.2c-1.4,0.5-2.9,0.8-4.5,0.8c-2.2,0-4.1-0.4-5.8-1.2
		c-1.7-0.8-3.1-1.9-4.2-3.2c-1.1-1.3-1.9-2.9-2.5-4.6c-0.6-1.8-0.8-3.6-0.8-5.6c0-1.9,0.3-3.8,0.8-5.6c0.6-1.8,1.4-3.3,2.5-4.7
		c1.1-1.4,2.5-2.4,4.2-3.2c1.7-0.8,3.6-1.2,5.8-1.2c1.3,0,2.6,0.2,3.9,0.6c1.3,0.4,2.4,1,3.5,1.8c1,0.8,1.9,1.7,2.6,2.9
		c0.7,1.1,1.1,2.4,1.3,3.9h-2.7C189.3,172.2,188.9,171.2,188.4,170.4z"/>
	<path fill="#333333" d="M196,173.3c0.6-1.8,1.4-3.3,2.5-4.7c1.1-1.4,2.5-2.4,4.2-3.2c1.7-0.8,3.6-1.2,5.8-1.2
		c2.2,0,4.1,0.4,5.8,1.2c1.7,0.8,3,1.9,4.1,3.2c1.1,1.4,1.9,2.9,2.5,4.7c0.6,1.8,0.8,3.6,0.8,5.6c0,1.9-0.3,3.8-0.8,5.6
		c-0.6,1.8-1.4,3.3-2.5,4.6c-1.1,1.3-2.5,2.4-4.1,3.2c-1.7,0.8-3.6,1.2-5.8,1.2c-2.2,0-4.1-0.4-5.8-1.2c-1.7-0.8-3.1-1.9-4.2-3.2
		c-1.1-1.3-1.9-2.9-2.5-4.6s-0.8-3.6-0.8-5.6C195.2,176.9,195.5,175,196,173.3z M198.5,183.4c0.4,1.5,1,2.8,1.9,4
		c0.9,1.2,2,2.1,3.3,2.8s2.9,1.1,4.8,1.1s3.5-0.4,4.8-1.1c1.3-0.7,2.4-1.6,3.3-2.8c0.9-1.2,1.5-2.5,1.9-4c0.4-1.5,0.6-3,0.6-4.5
		c0-1.5-0.2-3.1-0.6-4.5c-0.4-1.5-1-2.8-1.9-4c-0.9-1.2-1.9-2.1-3.3-2.8c-1.3-0.7-2.9-1.1-4.8-1.1s-3.5,0.4-4.8,1.1
		s-2.4,1.6-3.3,2.8c-0.9,1.2-1.5,2.5-1.9,4c-0.4,1.5-0.6,3-0.6,4.5C197.9,180.4,198.1,181.9,198.5,183.4z"/>
	<path fill="#333333" d="M38.1,206.6c1,0,1.8,0.1,2.6,0.3c0.8,0.2,1.5,0.4,2,0.8s1,0.9,1.3,1.5s0.5,1.4,0.5,2.4c0,1-0.2,1.9-0.7,2.5
		c-0.5,0.7-1.1,1.2-2,1.7c1.2,0.4,2.2,1,2.8,1.9c0.6,0.9,0.9,2,0.9,3.2c0,1-0.2,1.9-0.6,2.6c-0.4,0.7-0.9,1.3-1.6,1.8
		c-0.7,0.5-1.4,0.8-2.3,1c-0.9,0.2-1.7,0.3-2.6,0.3h-9.7v-20.1H38.1z M37.6,214.7c0.8,0,1.4-0.2,1.9-0.6c0.5-0.4,0.8-1,0.8-1.8
		c0-0.5-0.1-0.9-0.3-1.2c-0.2-0.3-0.4-0.5-0.7-0.7s-0.6-0.3-1-0.4c-0.4-0.1-0.7-0.1-1.1-0.1h-4.1v4.7H37.6z M37.8,223.2
		c0.4,0,0.8,0,1.2-0.1c0.4-0.1,0.7-0.2,1-0.4c0.3-0.2,0.5-0.5,0.7-0.8c0.2-0.3,0.3-0.8,0.3-1.3c0-1-0.3-1.8-0.9-2.2
		c-0.6-0.4-1.3-0.7-2.3-0.7h-4.8v5.5H37.8z"/>
	<path fill="#333333" d="M63.3,225.1c-1.5,1.3-3.6,2-6.3,2c-2.7,0-4.8-0.7-6.3-2c-1.5-1.3-2.2-3.3-2.2-6.1v-12.5h4.4v12.5
		c0,0.5,0,1.1,0.1,1.6c0.1,0.5,0.3,1,0.6,1.4c0.3,0.4,0.7,0.7,1.3,1c0.5,0.3,1.3,0.4,2.2,0.4c1.6,0,2.7-0.4,3.3-1.1
		c0.6-0.7,0.9-1.8,0.9-3.3v-12.5h4.4v12.5C65.5,221.8,64.8,223.8,63.3,225.1z"/>
	<path fill="#333333" d="M72.7,221.7c0.2,0.5,0.6,0.8,1,1.1c0.4,0.3,0.9,0.5,1.4,0.6s1.1,0.2,1.7,0.2c0.4,0,0.8,0,1.3-0.1
		c0.5-0.1,0.9-0.2,1.3-0.4c0.4-0.2,0.7-0.4,1-0.8s0.4-0.7,0.4-1.3c0-0.5-0.2-1-0.5-1.3c-0.3-0.3-0.8-0.6-1.4-0.8
		c-0.6-0.2-1.2-0.4-1.9-0.6c-0.7-0.2-1.4-0.4-2.2-0.6c-0.8-0.2-1.5-0.4-2.2-0.7c-0.7-0.3-1.4-0.6-1.9-1.1c-0.6-0.4-1-1-1.4-1.6
		c-0.3-0.6-0.5-1.4-0.5-2.3c0-1,0.2-1.9,0.7-2.7c0.4-0.8,1-1.4,1.7-1.9c0.7-0.5,1.5-0.9,2.4-1.1c0.9-0.2,1.8-0.4,2.7-0.4
		c1,0,2.1,0.1,3,0.4c1,0.2,1.8,0.6,2.6,1.1c0.7,0.5,1.3,1.2,1.8,2c0.4,0.8,0.7,1.8,0.7,3H80c0-0.6-0.2-1.1-0.4-1.5s-0.5-0.7-0.9-0.9
		c-0.4-0.2-0.8-0.4-1.2-0.5c-0.5-0.1-1-0.1-1.5-0.1c-0.4,0-0.7,0-1.1,0.1c-0.4,0.1-0.7,0.2-1,0.4c-0.3,0.2-0.5,0.4-0.7,0.7
		s-0.3,0.6-0.3,1.1c0,0.4,0.1,0.7,0.2,1c0.1,0.2,0.4,0.5,0.9,0.7s1,0.4,1.8,0.6c0.8,0.2,1.8,0.5,3.1,0.8c0.4,0.1,0.9,0.2,1.6,0.4
		c0.7,0.2,1.3,0.5,2,0.9c0.7,0.4,1.2,1,1.7,1.7c0.5,0.7,0.7,1.6,0.7,2.8c0,0.9-0.2,1.8-0.5,2.6c-0.4,0.8-0.9,1.5-1.6,2
		s-1.6,1-2.6,1.3s-2.2,0.5-3.6,0.5c-1.1,0-2.2-0.1-3.2-0.4s-2-0.7-2.8-1.3c-0.8-0.6-1.4-1.3-1.9-2.2c-0.5-0.9-0.7-2-0.7-3.2h4.3
		C72.3,220.7,72.5,221.2,72.7,221.7z"/>
	<path fill="#333333" d="M100.5,211.9c-0.3-0.4-0.6-0.8-1-1.1c-0.4-0.3-0.8-0.6-1.3-0.7c-0.5-0.2-1-0.3-1.6-0.3
		c-1,0-1.8,0.2-2.5,0.6c-0.7,0.4-1.3,0.9-1.7,1.5c-0.4,0.6-0.7,1.4-0.9,2.2c-0.2,0.8-0.3,1.7-0.3,2.6c0,0.8,0.1,1.7,0.3,2.5
		c0.2,0.8,0.5,1.5,0.9,2.2c0.4,0.6,1,1.1,1.7,1.5c0.7,0.4,1.5,0.6,2.5,0.6c1.3,0,2.4-0.4,3.2-1.2c0.8-0.8,1.2-1.9,1.4-3.3h4.3
		c-0.1,1.3-0.4,2.4-0.9,3.4c-0.5,1-1.1,1.9-1.9,2.6c-0.8,0.7-1.7,1.3-2.7,1.6c-1,0.4-2.2,0.6-3.4,0.6c-1.5,0-2.9-0.3-4.1-0.8
		c-1.2-0.5-2.3-1.3-3.1-2.2c-0.8-0.9-1.5-2-1.9-3.3c-0.5-1.3-0.7-2.6-0.7-4.1c0-1.5,0.2-2.9,0.7-4.2c0.5-1.3,1.1-2.4,1.9-3.4
		c0.8-1,1.9-1.7,3.1-2.2c1.2-0.5,2.6-0.8,4.1-0.8c1.1,0,2.2,0.2,3.1,0.5c1,0.3,1.9,0.8,2.6,1.4c0.8,0.6,1.4,1.4,1.9,2.3
		c0.5,0.9,0.8,1.9,1,3.1H101C100.9,212.8,100.7,212.4,100.5,211.9z"/>
	<path fill="#333333" d="M118.4,206.6l7.5,20.1h-4.6l-1.5-4.5h-7.5l-1.6,4.5h-4.4l7.6-20.1H118.4z M118.7,218.9l-2.5-7.4h-0.1
		l-2.6,7.4H118.7z"/>
	<path fill="#333333" d="M136.4,206.6c1.3,0,2.5,0.2,3.6,0.6c1.1,0.4,2.1,1,2.9,1.9c0.8,0.8,1.5,1.9,1.9,3.1
		c0.5,1.2,0.7,2.7,0.7,4.4c0,1.5-0.2,2.8-0.6,4.1c-0.4,1.2-0.9,2.3-1.7,3.2c-0.8,0.9-1.7,1.6-2.8,2.1s-2.5,0.8-4,0.8h-8.7v-20.1
		H136.4z M136.1,222.9c0.6,0,1.3-0.1,1.9-0.3c0.6-0.2,1.1-0.5,1.6-1s0.8-1.1,1.1-1.9c0.3-0.8,0.4-1.7,0.4-2.8c0-1-0.1-1.9-0.3-2.7
		c-0.2-0.8-0.5-1.5-1-2.1c-0.4-0.6-1-1-1.8-1.3c-0.7-0.3-1.7-0.5-2.7-0.5h-3.2v12.7H136.1z"/>
	<path fill="#333333" d="M148.3,212.5c0.5-1.3,1.1-2.4,1.9-3.4c0.8-1,1.9-1.7,3.1-2.2c1.2-0.5,2.6-0.8,4.1-0.8
		c1.6,0,2.9,0.3,4.2,0.8s2.3,1.3,3.1,2.2s1.5,2.1,1.9,3.4c0.4,1.3,0.7,2.7,0.7,4.2c0,1.5-0.2,2.8-0.7,4.1c-0.5,1.3-1.1,2.4-1.9,3.3
		c-0.8,0.9-1.9,1.7-3.1,2.2c-1.2,0.5-2.6,0.8-4.2,0.8c-1.5,0-2.9-0.3-4.1-0.8c-1.2-0.5-2.3-1.3-3.1-2.2c-0.8-0.9-1.5-2-1.9-3.3
		c-0.5-1.3-0.7-2.6-0.7-4.1C147.7,215.2,147.9,213.8,148.3,212.5z M152.4,219.2c0.2,0.8,0.5,1.5,0.9,2.2c0.4,0.6,1,1.1,1.7,1.5
		c0.7,0.4,1.5,0.6,2.5,0.6c1,0,1.8-0.2,2.5-0.6c0.7-0.4,1.3-0.9,1.7-1.5c0.4-0.6,0.7-1.4,0.9-2.2c0.2-0.8,0.3-1.6,0.3-2.5
		c0-0.9-0.1-1.7-0.3-2.6c-0.2-0.8-0.5-1.6-0.9-2.2c-0.4-0.6-1-1.2-1.7-1.5c-0.7-0.4-1.5-0.6-2.5-0.6c-1,0-1.8,0.2-2.5,0.6
		c-0.7,0.4-1.3,0.9-1.7,1.5c-0.4,0.6-0.7,1.4-0.9,2.2c-0.2,0.8-0.3,1.7-0.3,2.6C152.1,217.5,152.2,218.4,152.4,219.2z"/>
	<path fill="#333333" d="M181.3,206.6c0.9,0,1.7,0.1,2.4,0.4c0.7,0.3,1.3,0.7,1.9,1.2c0.5,0.5,0.9,1.1,1.2,1.8
		c0.3,0.7,0.4,1.4,0.4,2.2c0,1.2-0.2,2.2-0.7,3.1s-1.3,1.5-2.4,2v0.1c0.5,0.2,1,0.4,1.3,0.7c0.4,0.3,0.6,0.7,0.9,1.1
		c0.2,0.4,0.4,0.9,0.5,1.4c0.1,0.5,0.2,1,0.2,1.5c0,0.3,0,0.7,0.1,1.1s0.1,0.9,0.1,1.3s0.1,0.9,0.2,1.3c0.1,0.4,0.3,0.7,0.5,1h-4.4
		c-0.2-0.6-0.4-1.4-0.5-2.3c-0.1-0.9-0.1-1.7-0.3-2.5c-0.2-1-0.5-1.8-1-2.3c-0.5-0.5-1.3-0.7-2.4-0.7h-4.4v7.8h-4.4v-20.1H181.3z
		 M179.7,215.7c1,0,1.8-0.2,2.3-0.7c0.5-0.5,0.8-1.2,0.8-2.2c0-1-0.3-1.7-0.8-2.1c-0.5-0.4-1.3-0.7-2.3-0.7h-4.8v5.7H179.7z"/>
	<path fill="#333333" d="M207.2,206.6c1.3,0,2.5,0.2,3.6,0.6c1.1,0.4,2.1,1,2.9,1.9c0.8,0.8,1.5,1.9,1.9,3.1
		c0.5,1.2,0.7,2.7,0.7,4.4c0,1.5-0.2,2.8-0.6,4.1c-0.4,1.2-0.9,2.3-1.7,3.2c-0.8,0.9-1.7,1.6-2.8,2.1s-2.5,0.8-4,0.8h-8.7v-20.1
		H207.2z M206.9,222.9c0.6,0,1.3-0.1,1.9-0.3c0.6-0.2,1.1-0.5,1.6-1s0.8-1.1,1.1-1.9c0.3-0.8,0.4-1.7,0.4-2.8c0-1-0.1-1.9-0.3-2.7
		c-0.2-0.8-0.5-1.5-1-2.1c-0.4-0.6-1-1-1.8-1.3c-0.7-0.3-1.7-0.5-2.7-0.5H203v12.7H206.9z"/>
	<path fill="#333333" d="M234.4,206.6v3.7h-10.6v4.3h9.7v3.4h-9.7v4.9h10.8v3.7h-15.2v-20.1H234.4z"/>
	<path fill="#333333" d="M62.1,245.7c-0.3-0.4-0.6-0.8-1-1.1c-0.4-0.3-0.8-0.6-1.3-0.7c-0.5-0.2-1-0.3-1.6-0.3c-1,0-1.8,0.2-2.5,0.6
		c-0.7,0.4-1.3,0.9-1.7,1.5c-0.4,0.6-0.7,1.4-0.9,2.2c-0.2,0.8-0.3,1.7-0.3,2.6c0,0.8,0.1,1.7,0.3,2.5c0.2,0.8,0.5,1.5,0.9,2.2
		c0.4,0.6,1,1.1,1.7,1.5c0.7,0.4,1.5,0.6,2.5,0.6c1.3,0,2.4-0.4,3.2-1.2c0.8-0.8,1.2-1.9,1.4-3.3h4.3c-0.1,1.3-0.4,2.4-0.9,3.4
		c-0.5,1-1.1,1.9-1.9,2.6c-0.8,0.7-1.7,1.3-2.7,1.6c-1,0.4-2.2,0.6-3.4,0.6c-1.5,0-2.9-0.3-4.1-0.8c-1.2-0.5-2.3-1.3-3.1-2.2
		c-0.8-0.9-1.5-2-1.9-3.3c-0.5-1.3-0.7-2.6-0.7-4.1c0-1.5,0.2-2.9,0.7-4.2c0.5-1.3,1.1-2.4,1.9-3.4c0.8-1,1.9-1.7,3.1-2.2
		c1.2-0.5,2.6-0.8,4.1-0.8c1.1,0,2.2,0.2,3.1,0.5c1,0.3,1.9,0.8,2.6,1.4c0.8,0.6,1.4,1.4,1.9,2.3c0.5,0.9,0.8,1.9,1,3.1h-4.3
		C62.6,246.6,62.4,246.1,62.1,245.7z"/>
	<path fill="#333333" d="M69.9,246.3c0.5-1.3,1.1-2.4,1.9-3.4c0.8-1,1.9-1.7,3.1-2.2c1.2-0.5,2.6-0.8,4.1-0.8c1.6,0,2.9,0.3,4.2,0.8
		s2.3,1.3,3.1,2.2s1.5,2.1,1.9,3.4c0.4,1.3,0.7,2.7,0.7,4.2c0,1.5-0.2,2.8-0.7,4.1c-0.5,1.3-1.1,2.4-1.9,3.3
		c-0.8,0.9-1.9,1.7-3.1,2.2c-1.2,0.5-2.6,0.8-4.2,0.8c-1.5,0-2.9-0.3-4.1-0.8c-1.2-0.5-2.3-1.3-3.1-2.2c-0.8-0.9-1.5-2-1.9-3.3
		c-0.5-1.3-0.7-2.6-0.7-4.1C69.2,249,69.5,247.6,69.9,246.3z M73.9,252.9c0.2,0.8,0.5,1.5,0.9,2.2c0.4,0.6,1,1.1,1.7,1.5
		c0.7,0.4,1.5,0.6,2.5,0.6c1,0,1.8-0.2,2.5-0.6c0.7-0.4,1.3-0.9,1.7-1.5c0.4-0.6,0.7-1.4,0.9-2.2c0.2-0.8,0.3-1.6,0.3-2.5
		c0-0.9-0.1-1.7-0.3-2.6c-0.2-0.8-0.5-1.6-0.9-2.2c-0.4-0.6-1-1.2-1.7-1.5c-0.7-0.4-1.5-0.6-2.5-0.6c-1,0-1.8,0.2-2.5,0.6
		c-0.7,0.4-1.3,0.9-1.7,1.5c-0.4,0.6-0.7,1.4-0.9,2.2c-0.2,0.8-0.3,1.7-0.3,2.6C73.6,251.3,73.7,252.1,73.9,252.9z"/>
	<path fill="#333333" d="M96.4,240.3l8.4,13.5h0.1v-13.5h4.1v20.1h-4.4L96.2,247h-0.1v13.4H92v-20.1H96.4z"/>
	<path fill="#333333" d="M111.3,244v-3.7h16.5v3.7h-6v16.4h-4.4V244H111.3z"/>
	<path fill="#333333" d="M137.4,240.3l7.5,20.1h-4.6l-1.5-4.5h-7.5l-1.6,4.5h-4.4l7.6-20.1H137.4z M137.7,252.7l-2.5-7.4h-0.1
		l-2.6,7.4H137.7z"/>
	<path fill="#333333" d="M159.6,245.7c-0.3-0.4-0.6-0.8-1-1.1c-0.4-0.3-0.8-0.6-1.3-0.7c-0.5-0.2-1-0.3-1.6-0.3
		c-1,0-1.8,0.2-2.5,0.6c-0.7,0.4-1.3,0.9-1.7,1.5c-0.4,0.6-0.7,1.4-0.9,2.2c-0.2,0.8-0.3,1.7-0.3,2.6c0,0.8,0.1,1.7,0.3,2.5
		c0.2,0.8,0.5,1.5,0.9,2.2c0.4,0.6,1,1.1,1.7,1.5c0.7,0.4,1.5,0.6,2.5,0.6c1.3,0,2.4-0.4,3.2-1.2c0.8-0.8,1.2-1.9,1.4-3.3h4.3
		c-0.1,1.3-0.4,2.4-0.9,3.4c-0.5,1-1.1,1.9-1.9,2.6c-0.8,0.7-1.7,1.3-2.7,1.6c-1,0.4-2.2,0.6-3.4,0.6c-1.5,0-2.9-0.3-4.1-0.8
		c-1.2-0.5-2.3-1.3-3.1-2.2c-0.8-0.9-1.5-2-1.9-3.3c-0.5-1.3-0.7-2.6-0.7-4.1c0-1.5,0.2-2.9,0.7-4.2c0.5-1.3,1.1-2.4,1.9-3.4
		c0.8-1,1.9-1.7,3.1-2.2c1.2-0.5,2.6-0.8,4.1-0.8c1.1,0,2.2,0.2,3.1,0.5c1,0.3,1.9,0.8,2.6,1.4c0.8,0.6,1.4,1.4,1.9,2.3
		c0.5,0.9,0.8,1.9,1,3.1h-4.3C160,246.6,159.8,246.1,159.6,245.7z"/>
	<path fill="#333333" d="M166,244v-3.7h16.5v3.7h-6v16.4H172V244H166z"/>
	<path fill="#333333" d="M184.5,246.3c0.5-1.3,1.1-2.4,1.9-3.4c0.8-1,1.9-1.7,3.1-2.2c1.2-0.5,2.6-0.8,4.1-0.8
		c1.6,0,2.9,0.3,4.2,0.8s2.3,1.3,3.1,2.2s1.5,2.1,1.9,3.4c0.4,1.3,0.7,2.7,0.7,4.2c0,1.5-0.2,2.8-0.7,4.1c-0.5,1.3-1.1,2.4-1.9,3.3
		c-0.8,0.9-1.9,1.7-3.1,2.2c-1.2,0.5-2.6,0.8-4.2,0.8c-1.5,0-2.9-0.3-4.1-0.8c-1.2-0.5-2.3-1.3-3.1-2.2c-0.8-0.9-1.5-2-1.9-3.3
		c-0.5-1.3-0.7-2.6-0.7-4.1C183.9,249,184.1,247.6,184.5,246.3z M188.6,252.9c0.2,0.8,0.5,1.5,0.9,2.2c0.4,0.6,1,1.1,1.7,1.5
		c0.7,0.4,1.5,0.6,2.5,0.6c1,0,1.8-0.2,2.5-0.6c0.7-0.4,1.3-0.9,1.7-1.5c0.4-0.6,0.7-1.4,0.9-2.2c0.2-0.8,0.3-1.6,0.3-2.5
		c0-0.9-0.1-1.7-0.3-2.6c-0.2-0.8-0.5-1.6-0.9-2.2c-0.4-0.6-1-1.2-1.7-1.5c-0.7-0.4-1.5-0.6-2.5-0.6c-1,0-1.8,0.2-2.5,0.6
		c-0.7,0.4-1.3,0.9-1.7,1.5c-0.4,0.6-0.7,1.4-0.9,2.2c-0.2,0.8-0.3,1.7-0.3,2.6C188.3,251.3,188.4,252.1,188.6,252.9z"/>
	<path fill="#333333" d="M210,255.5c0.2,0.5,0.6,0.8,1,1.1c0.4,0.3,0.9,0.5,1.4,0.6s1.1,0.2,1.7,0.2c0.4,0,0.8,0,1.3-0.1
		c0.5-0.1,0.9-0.2,1.3-0.4c0.4-0.2,0.7-0.4,1-0.8c0.3-0.3,0.4-0.7,0.4-1.3c0-0.5-0.2-1-0.5-1.3c-0.3-0.3-0.8-0.6-1.4-0.8
		c-0.6-0.2-1.2-0.4-1.9-0.6c-0.7-0.2-1.4-0.4-2.2-0.6c-0.8-0.2-1.5-0.4-2.2-0.7c-0.7-0.3-1.4-0.6-1.9-1.1c-0.6-0.4-1-1-1.4-1.6
		c-0.3-0.6-0.5-1.4-0.5-2.3c0-1,0.2-1.9,0.7-2.7c0.4-0.8,1-1.4,1.7-1.9c0.7-0.5,1.5-0.9,2.4-1.1c0.9-0.2,1.8-0.4,2.7-0.4
		c1,0,2.1,0.1,3,0.4c1,0.2,1.8,0.6,2.6,1.1c0.7,0.5,1.3,1.2,1.8,2c0.4,0.8,0.7,1.8,0.7,3h-4.3c0-0.6-0.2-1.1-0.4-1.5
		s-0.5-0.7-0.9-0.9c-0.4-0.2-0.8-0.4-1.2-0.5c-0.5-0.1-1-0.1-1.5-0.1c-0.4,0-0.7,0-1.1,0.1c-0.4,0.1-0.7,0.2-1,0.4
		c-0.3,0.2-0.5,0.4-0.7,0.7s-0.3,0.6-0.3,1.1c0,0.4,0.1,0.7,0.2,1c0.1,0.2,0.4,0.5,0.9,0.7s1,0.4,1.8,0.6c0.8,0.2,1.8,0.5,3.1,0.8
		c0.4,0.1,0.9,0.2,1.6,0.4c0.7,0.2,1.3,0.5,2,0.9c0.7,0.4,1.2,1,1.7,1.7c0.5,0.7,0.7,1.6,0.7,2.8c0,0.9-0.2,1.8-0.5,2.6
		c-0.4,0.8-0.9,1.5-1.6,2s-1.6,1-2.6,1.3s-2.2,0.5-3.6,0.5c-1.1,0-2.2-0.1-3.2-0.4s-2-0.7-2.8-1.3c-0.8-0.6-1.4-1.3-1.9-2.2
		c-0.5-0.9-0.7-2-0.7-3.2h4.3C209.6,254.4,209.8,255,210,255.5z"/>
	<path fill="#333333" d="M56,336.5c0.8,0,1.5,0.1,2.2,0.3c0.6,0.2,1.2,0.6,1.7,1c0.5,0.4,0.8,1,1.1,1.6c0.2,0.6,0.4,1.3,0.4,2.1
		c0,0.8-0.1,1.5-0.4,2.1c-0.2,0.6-0.6,1.2-1.1,1.6c-0.5,0.4-1,0.8-1.7,1c-0.6,0.2-1.4,0.3-2.2,0.3h-6.2v7.6h-1.7v-17.8H56z
		 M55.6,345.3c1.2,0,2.1-0.3,2.9-0.9c0.7-0.6,1.1-1.5,1.1-2.7c0-1.2-0.4-2.1-1.1-2.7c-0.7-0.6-1.7-0.9-2.9-0.9h-5.8v7.3H55.6z"/>
	<path fill="#333333" d="M69,336.5l7,17.8h-1.8l-2.2-5.5h-8.1l-2.1,5.5H60l7.2-17.8H69z M71.4,347.4l-3.4-9.1l-3.6,9.1H71.4z"/>
	<path fill="#333333" d="M85.8,336.5c0.7,0,1.4,0.1,2.1,0.3c0.7,0.2,1.2,0.5,1.7,0.8s0.9,0.9,1.2,1.4c0.3,0.6,0.4,1.3,0.4,2.1
		c0,1.1-0.3,2.1-0.9,2.9c-0.6,0.8-1.4,1.4-2.6,1.6v0c0.6,0.1,1.1,0.2,1.4,0.5c0.4,0.2,0.7,0.5,0.9,0.9c0.2,0.3,0.4,0.8,0.5,1.2
		c0.1,0.5,0.2,1,0.2,1.5c0,0.3,0,0.7,0,1.1c0,0.4,0,0.9,0.1,1.3s0.1,0.9,0.2,1.2c0.1,0.4,0.3,0.7,0.4,0.9h-1.9
		c-0.1-0.2-0.2-0.4-0.2-0.6c-0.1-0.2-0.1-0.5-0.1-0.7c0-0.3,0-0.5-0.1-0.8s0-0.5,0-0.6c0-0.6-0.1-1.3-0.2-1.9
		c-0.1-0.6-0.2-1.2-0.5-1.7c-0.2-0.5-0.6-0.9-1-1.2s-1.1-0.4-1.9-0.4h-6.4v7.9h-1.7v-17.8H85.8z M85.6,345c0.5,0,1-0.1,1.5-0.2
		c0.5-0.2,0.9-0.4,1.2-0.7s0.6-0.7,0.8-1.1c0.2-0.4,0.3-0.9,0.3-1.5c0-1.1-0.3-2-0.9-2.6c-0.6-0.6-1.6-0.9-2.9-0.9h-6.3v7H85.6z"/>
	<path fill="#333333" d="M101.3,336.5l7,17.8h-1.8l-2.2-5.5h-8.1l-2.1,5.5h-1.8l7.2-17.8H101.3z M103.7,347.4l-3.4-9.1l-3.6,9.1
		H103.7z"/>
	<path fill="#333333" d="M124,336.5l7,17.8h-1.8l-2.2-5.5h-8.1l-2.1,5.5h-1.8l7.2-17.8H124z M126.4,347.4l-3.4-9.1l-3.6,9.1H126.4z"
		/>
	<path fill="#333333" d="M138.7,336.5c2.7,0.1,4.7,0.8,6.1,2.3c1.4,1.5,2.1,3.7,2.1,6.6c0,3-0.7,5.2-2.1,6.6
		c-1.4,1.5-3.4,2.2-6.1,2.3h-6.2v-17.8H138.7z M137.9,352.9c1.3,0,2.4-0.1,3.3-0.4s1.7-0.7,2.3-1.3c0.6-0.6,1-1.4,1.3-2.3
		c0.3-0.9,0.4-2.1,0.4-3.4s-0.1-2.5-0.4-3.4c-0.3-0.9-0.7-1.7-1.3-2.3c-0.6-0.6-1.4-1-2.3-1.3c-0.9-0.3-2-0.4-3.3-0.4h-3.6v14.9
		H137.9z"/>
	<path fill="#333333" d="M151.1,336.5v11c0,1,0.1,1.9,0.3,2.6c0.2,0.7,0.6,1.3,1,1.8c0.4,0.5,1,0.8,1.6,1c0.6,0.2,1.4,0.3,2.2,0.3
		c0.8,0,1.6-0.1,2.2-0.3c0.6-0.2,1.2-0.5,1.6-1c0.4-0.5,0.8-1,1-1.8c0.2-0.7,0.3-1.6,0.3-2.6v-11h1.7v11.4c0,0.9-0.1,1.8-0.4,2.6
		c-0.3,0.8-0.7,1.5-1.2,2.2s-1.3,1.1-2.1,1.5c-0.9,0.4-1.9,0.5-3.2,0.5c-1.2,0-2.3-0.2-3.2-0.5c-0.9-0.4-1.6-0.8-2.1-1.5
		s-1-1.3-1.2-2.2c-0.3-0.8-0.4-1.7-0.4-2.6v-11.4H151.1z"/>
	<path fill="#333333" d="M168.4,336.5v16.3h10v1.4h-11.7v-17.8H168.4z"/>
	<path fill="#333333" d="M190,336.5v1.4h-6.2v16.3h-1.7V338h-6.2v-1.4H190z"/>
	<path fill="#333333" d="M191.2,341.9c0.3-1.1,0.9-2.1,1.6-3c0.7-0.9,1.6-1.5,2.6-2s2.3-0.8,3.7-0.8s2.6,0.3,3.7,0.8
		c1,0.5,1.9,1.2,2.6,2c0.7,0.9,1.2,1.8,1.6,3c0.3,1.1,0.5,2.3,0.5,3.5c0,1.2-0.2,2.4-0.5,3.5c-0.3,1.1-0.9,2.1-1.6,2.9
		c-0.7,0.8-1.6,1.5-2.6,2c-1,0.5-2.3,0.8-3.7,0.8s-2.6-0.3-3.7-0.8c-1.1-0.5-1.9-1.2-2.6-2c-0.7-0.8-1.2-1.8-1.6-2.9
		c-0.3-1.1-0.5-2.3-0.5-3.5C190.7,344.2,190.9,343,191.2,341.9z M192.8,348.3c0.3,0.9,0.7,1.8,1.2,2.5c0.5,0.7,1.2,1.3,2.1,1.8
		c0.8,0.4,1.9,0.7,3,0.7c1.2,0,2.2-0.2,3-0.7c0.8-0.4,1.5-1,2.1-1.8c0.5-0.7,0.9-1.6,1.2-2.5s0.4-1.9,0.4-2.9c0-1-0.1-1.9-0.4-2.9
		c-0.3-0.9-0.7-1.8-1.2-2.5c-0.5-0.7-1.2-1.3-2.1-1.8c-0.8-0.4-1.8-0.7-3-0.7c-1.2,0-2.2,0.2-3,0.7c-0.8,0.4-1.5,1-2.1,1.8
		c-0.5,0.7-0.9,1.6-1.2,2.5c-0.3,0.9-0.4,1.9-0.4,2.9C192.4,346.4,192.5,347.3,192.8,348.3z"/>
	<path fill="#333333" d="M211.3,350.8c0.3,0.6,0.7,1.1,1.2,1.5s1.1,0.6,1.9,0.8c0.7,0.2,1.5,0.2,2.3,0.2c0.5,0,1-0.1,1.5-0.2
		c0.5-0.1,1.1-0.3,1.5-0.6s0.9-0.7,1.2-1.1c0.3-0.5,0.5-1,0.5-1.7c0-0.5-0.1-0.9-0.3-1.3c-0.2-0.4-0.5-0.7-0.9-0.9s-0.8-0.5-1.2-0.6
		c-0.4-0.2-0.9-0.3-1.3-0.4l-4-1c-0.5-0.1-1-0.3-1.5-0.5c-0.5-0.2-0.9-0.5-1.3-0.8c-0.4-0.3-0.7-0.7-0.9-1.2
		c-0.2-0.5-0.3-1.1-0.3-1.8c0-0.4,0.1-0.9,0.2-1.5s0.5-1.1,0.9-1.6s1.1-1,1.9-1.3c0.8-0.4,1.8-0.5,3.1-0.5c0.9,0,1.7,0.1,2.5,0.3
		c0.8,0.2,1.5,0.6,2.1,1s1.1,1,1.4,1.7s0.5,1.5,0.5,2.4h-1.7c0-0.7-0.2-1.3-0.5-1.8c-0.3-0.5-0.6-0.9-1.1-1.3
		c-0.4-0.3-0.9-0.6-1.5-0.8c-0.6-0.2-1.2-0.3-1.8-0.3c-0.6,0-1.1,0.1-1.7,0.2s-1,0.3-1.4,0.6c-0.4,0.3-0.7,0.6-1,1.1s-0.4,1-0.4,1.7
		c0,0.4,0.1,0.8,0.2,1.1c0.1,0.3,0.3,0.6,0.6,0.8s0.5,0.4,0.9,0.5s0.7,0.2,1,0.3l4.3,1.1c0.6,0.2,1.2,0.4,1.8,0.6
		c0.6,0.2,1,0.5,1.5,0.9c0.4,0.4,0.8,0.8,1,1.3c0.2,0.5,0.4,1.1,0.4,1.9c0,0.2,0,0.5-0.1,0.8c0,0.3-0.1,0.7-0.3,1.1
		c-0.2,0.4-0.4,0.8-0.7,1.1c-0.3,0.4-0.7,0.7-1.2,1c-0.5,0.3-1.1,0.6-1.9,0.7c-0.7,0.2-1.6,0.3-2.7,0.3c-1,0-2-0.1-2.9-0.4
		c-0.9-0.2-1.7-0.6-2.3-1.1c-0.6-0.5-1.1-1.1-1.5-1.9c-0.3-0.8-0.5-1.7-0.4-2.8h1.7C210.9,349.4,211,350.2,211.3,350.8z"/>
</g>
<rect x="0.9" y="273.6" fill="#B4589D" stroke="#9C4989" stroke-width="1.7413" stroke-miterlimit="10" width="263.4" height="49"/>
<g>
	<path fill="#FFFFFF" d="M31.1,305.5c-0.8,0.3-1.6,0.5-2.5,0.5c-1.3,0-2.5-0.2-3.5-0.7s-1.9-1.1-2.7-1.9c-0.7-0.8-1.3-1.7-1.7-2.8
		c-0.4-1.1-0.6-2.2-0.6-3.5c0-1.3,0.2-2.5,0.6-3.6c0.4-1.1,0.9-2.1,1.7-2.9c0.7-0.8,1.6-1.5,2.7-1.9s2.2-0.7,3.5-0.7
		c0.9,0,1.7,0.1,2.6,0.4c0.8,0.3,1.6,0.7,2.2,1.2c0.7,0.5,1.2,1.1,1.6,1.9c0.4,0.8,0.7,1.6,0.8,2.6h-3.6c-0.2-1-0.7-1.7-1.3-2.2
		c-0.6-0.5-1.4-0.7-2.3-0.7c-0.8,0-1.6,0.2-2.2,0.5s-1.1,0.8-1.4,1.3c-0.4,0.6-0.6,1.2-0.8,1.9s-0.3,1.4-0.3,2.2
		c0,0.7,0.1,1.4,0.3,2.1s0.4,1.3,0.8,1.8c0.4,0.5,0.8,1,1.4,1.3c0.6,0.3,1.3,0.5,2.2,0.5c1.2,0,2.2-0.3,2.9-0.9
		c0.7-0.6,1.1-1.5,1.2-2.7H29v-2.8h7.2v9.3h-2.4l-0.4-1.9C32.7,304.5,32,305.1,31.1,305.5z"/>
	<path fill="#FFFFFF" d="M52,288.5v3.2h-9v3.7h8.3v2.9H43v4.2h9.2v3.2h-13v-17.1H52z"/>
	<path fill="#FFFFFF" d="M54.6,293.5c0.4-1.1,0.9-2.1,1.7-2.9c0.7-0.8,1.6-1.5,2.7-1.9s2.2-0.7,3.5-0.7c1.3,0,2.5,0.2,3.6,0.7
		s1.9,1.1,2.6,1.9c0.7,0.8,1.3,1.8,1.7,2.9c0.4,1.1,0.6,2.3,0.6,3.6c0,1.2-0.2,2.4-0.6,3.5c-0.4,1.1-0.9,2-1.7,2.8
		c-0.7,0.8-1.6,1.4-2.6,1.9s-2.2,0.7-3.6,0.7c-1.3,0-2.5-0.2-3.5-0.7s-1.9-1.1-2.7-1.9c-0.7-0.8-1.3-1.7-1.7-2.8
		c-0.4-1.1-0.6-2.2-0.6-3.5C54,295.8,54.2,294.6,54.6,293.5z M58,299.2c0.2,0.7,0.4,1.3,0.8,1.8c0.4,0.5,0.8,1,1.4,1.3
		c0.6,0.3,1.3,0.5,2.2,0.5c0.8,0,1.6-0.2,2.2-0.5c0.6-0.3,1.1-0.8,1.4-1.3s0.6-1.2,0.8-1.8s0.3-1.4,0.3-2.1c0-0.8-0.1-1.5-0.3-2.2
		s-0.4-1.3-0.8-1.9c-0.4-0.6-0.8-1-1.4-1.3s-1.3-0.5-2.2-0.5c-0.8,0-1.6,0.2-2.2,0.5s-1.1,0.8-1.4,1.3c-0.4,0.6-0.6,1.2-0.8,1.9
		s-0.3,1.4-0.3,2.2C57.8,297.8,57.9,298.5,58,299.2z"/>
	<path fill="#FFFFFF" d="M77.2,288.5v14h8.4v3.2H73.4v-17.1H77.2z"/>
	<path fill="#FFFFFF" d="M87.5,293.5c0.4-1.1,0.9-2.1,1.7-2.9c0.7-0.8,1.6-1.5,2.7-1.9s2.2-0.7,3.5-0.7c1.3,0,2.5,0.2,3.6,0.7
		s1.9,1.1,2.6,1.9c0.7,0.8,1.3,1.8,1.7,2.9c0.4,1.1,0.6,2.3,0.6,3.6c0,1.2-0.2,2.4-0.6,3.5c-0.4,1.1-0.9,2-1.7,2.8
		c-0.7,0.8-1.6,1.4-2.6,1.9s-2.2,0.7-3.6,0.7c-1.3,0-2.5-0.2-3.5-0.7s-1.9-1.1-2.7-1.9c-0.7-0.8-1.3-1.7-1.7-2.8
		c-0.4-1.1-0.6-2.2-0.6-3.5C86.9,295.8,87.1,294.6,87.5,293.5z M90.9,299.2c0.2,0.7,0.4,1.3,0.8,1.8c0.4,0.5,0.8,1,1.4,1.3
		c0.6,0.3,1.3,0.5,2.2,0.5c0.8,0,1.6-0.2,2.2-0.5c0.6-0.3,1.1-0.8,1.4-1.3s0.6-1.2,0.8-1.8s0.3-1.4,0.3-2.1c0-0.8-0.1-1.5-0.3-2.2
		s-0.4-1.3-0.8-1.9c-0.4-0.6-0.8-1-1.4-1.3s-1.3-0.5-2.2-0.5c-0.8,0-1.6,0.2-2.2,0.5s-1.1,0.8-1.4,1.3c-0.4,0.6-0.6,1.2-0.8,1.9
		s-0.3,1.4-0.3,2.2C90.7,297.8,90.8,298.5,90.9,299.2z"/>
	<path fill="#FFFFFF" d="M117.3,293c-0.2-0.4-0.5-0.7-0.8-0.9c-0.3-0.3-0.7-0.5-1.1-0.6s-0.9-0.2-1.3-0.2c-0.8,0-1.6,0.2-2.2,0.5
		s-1.1,0.8-1.4,1.3c-0.4,0.6-0.6,1.2-0.8,1.9s-0.3,1.4-0.3,2.2c0,0.7,0.1,1.4,0.3,2.1s0.4,1.3,0.8,1.8c0.4,0.5,0.8,1,1.4,1.3
		c0.6,0.3,1.3,0.5,2.2,0.5c1.2,0,2.1-0.4,2.7-1.1c0.6-0.7,1-1.6,1.2-2.8h3.6c-0.1,1.1-0.3,2-0.7,2.9c-0.4,0.9-0.9,1.6-1.6,2.2
		c-0.7,0.6-1.4,1.1-2.3,1.4c-0.9,0.3-1.8,0.5-2.9,0.5c-1.3,0-2.5-0.2-3.5-0.7s-1.9-1.1-2.7-1.9c-0.7-0.8-1.3-1.7-1.7-2.8
		c-0.4-1.1-0.6-2.2-0.6-3.5c0-1.3,0.2-2.5,0.6-3.6c0.4-1.1,0.9-2.1,1.7-2.9c0.7-0.8,1.6-1.5,2.7-1.9s2.2-0.7,3.5-0.7
		c0.9,0,1.8,0.1,2.7,0.4c0.8,0.3,1.6,0.7,2.3,1.2c0.7,0.5,1.2,1.2,1.6,1.9c0.4,0.8,0.7,1.6,0.8,2.6h-3.6
		C117.7,293.8,117.6,293.4,117.3,293z"/>
	<path fill="#FFFFFF" d="M132.7,288.5l6.4,17.1h-3.9l-1.3-3.8h-6.4l-1.3,3.8h-3.8l6.5-17.1H132.7z M132.9,299l-2.2-6.3h0l-2.2,6.3
		H132.9z"/>
	<path fill="#FFFFFF" d="M144.3,288.5v14h8.4v3.2h-12.1v-17.1H144.3z"/>
	<path fill="#FFFFFF" d="M158.6,288.5v17.1h-3.8v-17.1H158.6z"/>
	<path fill="#FFFFFF" d="M170,291.6h-8.5v-3.2H175v3l-9.2,11h9.4v3.2h-14.4v-3L170,291.6z"/>
	<path fill="#FFFFFF" d="M186,288.5l6.4,17.1h-3.9l-1.3-3.8h-6.4l-1.3,3.8h-3.8l6.5-17.1H186z M186.2,299l-2.2-6.3h0l-2.2,6.3H186.2
		z"/>
	<path fill="#FFFFFF" d="M201.3,288.5c1.1,0,2.1,0.2,3.1,0.5c1,0.4,1.8,0.9,2.5,1.6c0.7,0.7,1.2,1.6,1.6,2.6
		c0.4,1.1,0.6,2.3,0.6,3.7c0,1.2-0.2,2.4-0.5,3.5c-0.3,1.1-0.8,2-1.5,2.7c-0.6,0.8-1.5,1.4-2.4,1.8c-1,0.4-2.1,0.7-3.4,0.7h-7.4
		v-17.1H201.3z M201,302.4c0.5,0,1.1-0.1,1.6-0.3c0.5-0.2,1-0.5,1.4-0.9c0.4-0.4,0.7-0.9,1-1.6c0.2-0.7,0.4-1.5,0.4-2.4
		c0-0.9-0.1-1.6-0.3-2.3c-0.2-0.7-0.4-1.3-0.8-1.8c-0.4-0.5-0.9-0.9-1.5-1.1c-0.6-0.3-1.4-0.4-2.3-0.4h-2.7v10.8H201z"/>
	<path fill="#FFFFFF" d="M211.5,293.5c0.4-1.1,0.9-2.1,1.7-2.9c0.7-0.8,1.6-1.5,2.7-1.9s2.2-0.7,3.5-0.7c1.3,0,2.5,0.2,3.6,0.7
		s1.9,1.1,2.6,1.9c0.7,0.8,1.3,1.8,1.7,2.9c0.4,1.1,0.6,2.3,0.6,3.6c0,1.2-0.2,2.4-0.6,3.5c-0.4,1.1-0.9,2-1.7,2.8
		c-0.7,0.8-1.6,1.4-2.6,1.9s-2.2,0.7-3.6,0.7c-1.3,0-2.5-0.2-3.5-0.7s-1.9-1.1-2.7-1.9c-0.7-0.8-1.3-1.7-1.7-2.8
		c-0.4-1.1-0.6-2.2-0.6-3.5C210.9,295.8,211.1,294.6,211.5,293.5z M214.9,299.2c0.2,0.7,0.4,1.3,0.8,1.8c0.4,0.5,0.8,1,1.4,1.3
		c0.6,0.3,1.3,0.5,2.2,0.5c0.8,0,1.6-0.2,2.2-0.5c0.6-0.3,1.1-0.8,1.4-1.3s0.6-1.2,0.8-1.8s0.3-1.4,0.3-2.1c0-0.8-0.1-1.5-0.3-2.2
		s-0.4-1.3-0.8-1.9c-0.4-0.6-0.8-1-1.4-1.3s-1.3-0.5-2.2-0.5c-0.8,0-1.6,0.2-2.2,0.5s-1.1,0.8-1.4,1.3c-0.4,0.6-0.6,1.2-0.8,1.9
		s-0.3,1.4-0.3,2.2C214.7,297.8,214.8,298.5,214.9,299.2z"/>
	<path fill="#FFFFFF" d="M233.2,301.4c0.2,0.4,0.5,0.7,0.8,1c0.3,0.2,0.7,0.4,1.2,0.6c0.5,0.1,0.9,0.2,1.4,0.2c0.3,0,0.7,0,1.1-0.1
		c0.4-0.1,0.7-0.2,1.1-0.3s0.6-0.4,0.8-0.7c0.2-0.3,0.3-0.6,0.3-1.1c0-0.5-0.1-0.8-0.4-1.1c-0.3-0.3-0.7-0.5-1.2-0.7
		c-0.5-0.2-1-0.4-1.6-0.5c-0.6-0.1-1.2-0.3-1.8-0.5c-0.6-0.2-1.3-0.4-1.9-0.6c-0.6-0.2-1.2-0.5-1.6-0.9c-0.5-0.4-0.9-0.8-1.2-1.4
		c-0.3-0.6-0.4-1.2-0.4-2c0-0.9,0.2-1.6,0.6-2.3c0.4-0.6,0.9-1.2,1.5-1.6c0.6-0.4,1.3-0.8,2.1-1c0.8-0.2,1.5-0.3,2.3-0.3
		c0.9,0,1.8,0.1,2.6,0.3c0.8,0.2,1.6,0.5,2.2,1s1.1,1,1.5,1.7c0.4,0.7,0.6,1.5,0.6,2.5h-3.6c0-0.5-0.1-0.9-0.3-1.3
		c-0.2-0.3-0.4-0.6-0.7-0.8c-0.3-0.2-0.7-0.3-1-0.4c-0.4-0.1-0.8-0.1-1.3-0.1c-0.3,0-0.6,0-0.9,0.1c-0.3,0.1-0.6,0.2-0.8,0.3
		c-0.2,0.2-0.5,0.4-0.6,0.6s-0.2,0.5-0.2,0.9c0,0.3,0.1,0.6,0.2,0.8c0.1,0.2,0.4,0.4,0.8,0.6c0.4,0.2,0.9,0.4,1.6,0.5
		c0.7,0.2,1.5,0.4,2.6,0.7c0.3,0.1,0.8,0.2,1.3,0.3c0.6,0.2,1.1,0.4,1.7,0.8c0.6,0.4,1,0.9,1.5,1.5c0.4,0.6,0.6,1.4,0.6,2.4
		c0,0.8-0.2,1.5-0.5,2.2c-0.3,0.7-0.8,1.3-1.4,1.7c-0.6,0.5-1.3,0.9-2.2,1.1c-0.9,0.3-1.9,0.4-3.1,0.4c-0.9,0-1.9-0.1-2.7-0.3
		s-1.7-0.6-2.4-1.1c-0.7-0.5-1.2-1.1-1.6-1.9c-0.4-0.8-0.6-1.7-0.6-2.7h3.6C232.9,300.5,233,301,233.2,301.4z"/>
</g>
<g>
	<g opacity="0.6">
		<path fill="#FFFFFF" d="M192.7,120.6c1.5,5.8-16.8,14.7-40.8,19.9c-24,5.2-44.7,4.7-46.2-1.1c-1.5-5.8,16.8-14.7,40.8-19.9
			S191.3,114.8,192.7,120.6z"/>
		<path fill="#FEFEFE" d="M192.2,120.7c1.5,5.8-16.6,14.6-40.4,19.8s-44.3,4.7-45.8-1.1c-1.5-5.8,16.6-14.6,40.4-19.8
			C170.2,114.4,190.7,114.9,192.2,120.7z"/>
		<path fill="#FDFDFD" d="M191.6,120.8c1.5,5.7-16.5,14.5-40.1,19.6c-23.6,5.1-44,4.6-45.4-1.1c-1.5-5.7,16.5-14.5,40.1-19.6
			S190.2,115.1,191.6,120.8z"/>
		<path fill="#FDFCFD" d="M191.1,120.9c1.5,5.7-16.4,14.4-39.8,19.5s-43.6,4.6-45.1-1.1c-1.5-5.7,16.4-14.4,39.8-19.5
			C169.5,114.8,189.6,115.3,191.1,120.9z"/>
		<path fill="#FCFBFC" d="M190.6,121.1c1.4,5.6-16.2,14.3-39.5,19.3s-43.3,4.5-44.7-1.1c-1.4-5.6,16.2-14.3,39.5-19.3
			S189.1,115.4,190.6,121.1z"/>
		<path fill="#FBFBFB" d="M190,121.2c1.4,5.6-16.1,14.2-39.1,19.2c-23.1,5-42.9,4.5-44.3-1.1c-1.4-5.6,16.1-14.2,39.1-19.2
			S188.6,115.6,190,121.2z"/>
		<path fill="#FAFAFA" d="M189.5,121.3c1.4,5.6-16,14.1-38.8,19.1s-42.5,4.5-44-1.1c-1.4-5.6,16-14.1,38.8-19.1
			C168.3,115.2,188,115.7,189.5,121.3z"/>
		<path fill="#F9F9F9" d="M188.9,121.4c1.4,5.5-15.8,14-38.5,18.9c-22.7,4.9-42.2,4.4-43.6-1.1c-1.4-5.5,15.8-14,38.5-18.9
			C168,115.4,187.5,115.9,188.9,121.4z"/>
		<path fill="#F8F8F8" d="M188.4,121.5c1.4,5.5-15.7,13.9-38.2,18.8s-41.8,4.4-43.2-1.1c-1.4-5.5,15.7-13.9,38.2-18.8
			C167.6,115.6,187,116.1,188.4,121.5z"/>
		<path fill="#F7F7F7" d="M187.8,121.7c1.4,5.4-15.5,13.8-37.8,18.6s-41.5,4.3-42.9-1.1c-1.4-5.4,15.5-13.8,37.8-18.6
			S186.4,116.2,187.8,121.7z"/>
		<path fill="#F6F6F6" d="M187.3,121.8c1.4,5.4-15.4,13.7-37.5,18.5c-22.1,4.8-41.1,4.3-42.5-1.1c-1.4-5.4,15.4-13.7,37.5-18.5
			C166.8,115.9,185.9,116.4,187.3,121.8z"/>
		<path fill="#F5F5F5" d="M186.7,121.9c1.4,5.4-15.3,13.6-37.2,18.3s-40.8,4.2-42.2-1.1c-1.4-5.4,15.3-13.6,37.2-18.3
			S185.3,116.5,186.7,121.9z"/>
		<path fill="#F5F4F5" d="M186.2,122c1.4,5.3-15.1,13.5-36.9,18.2c-21.7,4.7-40.4,4.2-41.8-1.1c-1.4-5.3,15.1-13.5,36.9-18.2
			C166.1,116.2,184.8,116.7,186.2,122z"/>
		<path fill="#F4F3F4" d="M185.6,122.1c1.4,5.3-15,13.4-36.5,18s-40.1,4.2-41.4-1.1s15-13.4,36.5-18
			C165.7,116.3,184.3,116.9,185.6,122.1z"/>
		<path fill="#F3F2F3" d="M185.1,122.3c1.3,5.2-14.9,13.2-36.2,17.9s-39.7,4.1-41.1-1.1c-1.3-5.2,14.9-13.2,36.2-17.9
			S183.7,117,185.1,122.3z"/>
		<path fill="#F2F1F2" d="M184.5,122.4c1.3,5.2-14.7,13.1-35.9,17.7c-21.1,4.6-39.4,4.1-40.7-1.1c-1.3-5.2,14.7-13.1,35.9-17.7
			C165,116.7,183.2,117.2,184.5,122.4z"/>
		<path fill="#F1F0F1" d="M184,122.5c1.3,5.2-14.6,13-35.5,17.6s-39,4-40.3-1.1c-1.3-5.2,14.6-13,35.5-17.6S182.6,117.3,184,122.5z"
			/>
		<path fill="#F0EFF0" d="M183.4,122.6c1.3,5.1-14.5,12.9-35.2,17.4c-20.8,4.5-38.7,4-40-1.1c-1.3-5.1,14.5-12.9,35.2-17.4
			C164.2,117,182.1,117.5,183.4,122.6z"/>
		<path fill="#EFEEEF" d="M182.9,122.7c1.3,5.1-14.3,12.8-34.9,17.3s-38.3,3.9-39.6-1.1c-1.3-5.1,14.3-12.8,34.9-17.3
			S181.6,117.6,182.9,122.7z"/>
		<path fill="#EEEDEE" d="M182.3,122.9c1.3,5-14.2,12.7-34.6,17.1s-38,3.9-39.2-1.1c-1.3-5,14.2-12.7,34.6-17.1
			S181,117.8,182.3,122.9z"/>
		<path fill="#EDEDED" d="M181.8,123c1.3,5-14,12.6-34.2,17c-20.2,4.4-37.6,3.9-38.9-1.1c-1.3-5,14-12.6,34.2-17
			C163.1,117.5,180.5,118,181.8,123z"/>
		<path fill="#ECECEC" d="M181.2,123.1c1.3,5-13.9,12.5-33.9,16.8s-37.2,3.8-38.5-1.1c-1.3-5,13.9-12.5,33.9-16.8
			C162.7,117.6,180,118.1,181.2,123.1z"/>
		<path fill="#ECEBEB" d="M180.7,123.2c1.3,4.9-13.8,12.4-33.6,16.7c-19.8,4.3-36.9,3.8-38.2-1.1c-1.3-4.9,13.8-12.4,33.6-16.7
			C162.3,117.8,179.4,118.3,180.7,123.2z"/>
		<path fill="#EBEAEB" d="M180.1,123.3c1.2,4.9-13.6,12.3-33.3,16.5c-19.6,4.3-36.5,3.7-37.8-1.1c-1.2-4.9,13.6-12.3,33.3-16.5
			S178.9,118.4,180.1,123.3z"/>
		<path fill="#EAE9EA" d="M179.6,123.4c1.2,4.8-13.5,12.2-32.9,16.4c-19.4,4.2-36.2,3.7-37.4-1.1c-1.2-4.8,13.5-12.2,32.9-16.4
			C161.6,118.1,178.3,118.6,179.6,123.4z"/>
		<path fill="#E9E8E9" d="M179,123.6c1.2,4.8-13.4,12.1-32.6,16.2s-35.8,3.7-37.1-1.2s13.4-12.1,32.6-16.2
			C161.2,118.2,177.8,118.8,179,123.6z"/>
		<path fill="#E8E7E8" d="M178.5,123.7c1.2,4.8-13.2,12-32.3,16.1c-19,4.1-35.5,3.6-36.7-1.2c-1.2-4.8,13.2-12,32.3-16.1
			C160.8,118.4,177.3,118.9,178.5,123.7z"/>
		<path fill="#E7E6E7" d="M177.9,123.8c1.2,4.7-13.1,11.9-32,16s-35.1,3.6-36.3-1.2s13.1-11.9,32-16
			C160.5,118.6,176.7,119.1,177.9,123.8z"/>
		<path fill="#E6E5E6" d="M177.4,123.9c1.2,4.7-13,11.8-31.6,15.8c-18.7,4-34.8,3.5-36-1.2s13-11.8,31.6-15.8
			S176.2,119.2,177.4,123.9z"/>
		<path fill="#E5E4E5" d="M176.8,124c1.2,4.6-12.8,11.7-31.3,15.7c-18.5,4-34.4,3.5-35.6-1.2c-1.2-4.6,12.8-11.7,31.3-15.7
			C159.7,118.9,175.7,119.4,176.8,124z"/>
		<path fill="#E4E3E4" d="M176.3,124.2c1.2,4.6-12.7,11.5-31,15.5s-34.1,3.4-35.2-1.2s12.7-11.5,31-15.5
			C159.3,119,175.1,119.6,176.3,124.2z"/>
		<path fill="#E4E2E3" d="M175.7,124.3c1.2,4.6-12.6,11.4-30.7,15.4c-18.1,3.9-33.7,3.4-34.9-1.2c-1.2-4.6,12.6-11.4,30.7-15.4
			C159,119.2,174.6,119.7,175.7,124.3z"/>
		<path fill="#E3E2E2" d="M175.2,124.4c1.2,4.5-12.4,11.3-30.3,15.2s-33.4,3.4-34.5-1.2s12.4-11.3,30.3-15.2S174,119.9,175.2,124.4z
			"/>
		<path fill="#E2E1E1" d="M174.6,124.5c1.1,4.5-12.3,11.2-30,15.1c-17.7,3.8-33,3.3-34.2-1.2c-1.1-4.5,12.3-11.2,30-15.1
			S173.5,120,174.6,124.5z"/>
		<path fill="#E1E0E0" d="M174.1,124.6c1.1,4.4-12.1,11.1-29.7,14.9c-17.5,3.8-32.7,3.3-33.8-1.2s12.1-11.1,29.7-14.9
			C157.8,119.7,173,120.2,174.1,124.6z"/>
		<path fill="#E0DFDF" d="M173.5,124.8c1.1,4.4-12,11-29.3,14.8s-32.3,3.2-33.4-1.2s12-11,29.3-14.8S172.4,120.4,173.5,124.8z"/>
		<path fill="#DFDEDE" d="M173,124.9c1.1,4.4-11.9,10.9-29,14.6c-17.1,3.7-31.9,3.2-33.1-1.2c-1.1-4.4,11.9-10.9,29-14.6
			C157.1,120,171.9,120.5,173,124.9z"/>
		<path fill="#DEDDDE" d="M172.5,125c1.1,4.3-11.7,10.8-28.7,14.5s-31.6,3.1-32.7-1.2s11.7-10.8,28.7-14.5S171.3,120.7,172.5,125z"
			/>
		<path fill="#DDDCDD" d="M171.9,125.1c1.1,4.3-11.6,10.7-28.4,14.3s-31.2,3.1-32.3-1.2s11.6-10.7,28.4-14.3
			C156.3,120.3,170.8,120.8,171.9,125.1z"/>
		<path fill="#DDDBDC" d="M171.4,125.2c1.1,4.2-11.5,10.6-28,14.2c-16.6,3.6-30.9,3.1-32-1.2c-1.1-4.2,11.5-10.6,28-14.2
			C156,120.5,170.3,121,171.4,125.2z"/>
		<path fill="#DCDADB" d="M170.8,125.4c1.1,4.2-11.3,10.5-27.7,14s-30.5,3-31.6-1.2s11.3-10.5,27.7-14
			C155.6,120.6,169.7,121.2,170.8,125.4z"/>
		<path fill="#DBD9DA" d="M170.3,125.5c1.1,4.2-11.2,10.4-27.4,13.9c-16.2,3.5-30.2,3-31.2-1.2c-1.1-4.2,11.2-10.4,27.4-13.9
			C155.2,120.8,169.2,121.3,170.3,125.5z"/>
		<path fill="#DAD9D9" d="M169.7,125.6c1.1,4.1-11.1,10.3-27.1,13.7s-29.8,2.9-30.9-1.2c-1.1-4.1,11.1-10.3,27.1-13.7
			S168.7,121.5,169.7,125.6z"/>
		<path fill="#D9D8D8" d="M169.2,125.7c1,4.1-10.9,10.2-26.7,13.6s-29.5,2.9-30.5-1.2s10.9-10.2,26.7-13.6
			C154.5,121.1,168.1,121.6,169.2,125.7z"/>
		<path fill="#D8D7D7" d="M168.6,125.8c1,4-10.8,10.1-26.4,13.4c-15.6,3.4-29.1,2.9-30.2-1.2c-1-4,10.8-10.1,26.4-13.4
			C154.1,121.3,167.6,121.8,168.6,125.8z"/>
		<path fill="#D7D6D6" d="M168.1,126c1,4-10.7,10-26.1,13.3s-28.8,2.8-29.8-1.2c-1-4,10.7-10,26.1-13.3
			C153.7,121.4,167,122,168.1,126z"/>
		<path fill="#D6D5D6" d="M167.5,126.1c1,4-10.5,9.8-25.8,13.2c-15.2,3.3-28.4,2.8-29.4-1.2s10.5-9.8,25.8-13.2
			C153.3,121.6,166.5,122.1,167.5,126.1z"/>
		<path fill="#D5D4D5" d="M167,126.2c1,3.9-10.4,9.7-25.4,13s-28.1,2.7-29.1-1.2c-1-3.9,10.4-9.7,25.4-13S166,122.3,167,126.2z"/>
		<path fill="#D5D3D4" d="M166.4,126.3c1,3.9-10.2,9.6-25.1,12.9c-14.9,3.2-27.7,2.7-28.7-1.2c-1-3.9,10.2-9.6,25.1-12.9
			S165.4,122.4,166.4,126.3z"/>
		<path fill="#D4D2D3" d="M165.9,126.4c1,3.8-10.1,9.5-24.8,12.7c-14.7,3.2-27.4,2.6-28.3-1.2s10.1-9.5,24.8-12.7
			C152.2,122.1,164.9,122.6,165.9,126.4z"/>
		<path fill="#D3D2D2" d="M165.3,126.6c1,3.8-10,9.4-24.4,12.6s-27,2.6-28-1.2c-1-3.8,10-9.4,24.4-12.6
			C151.8,122.2,164.3,122.8,165.3,126.6z"/>
		<path fill="#D2D1D1" d="M164.8,126.7c1,3.8-9.8,9.3-24.1,12.4c-14.3,3.1-26.6,2.6-27.6-1.2s9.8-9.3,24.1-12.4
			C151.5,122.4,163.8,122.9,164.8,126.7z"/>
		<path fill="#D1D0D0" d="M164.2,126.8c1,3.7-9.7,9.2-23.8,12.3c-14.1,3.1-26.3,2.5-27.2-1.2s9.7-9.2,23.8-12.3
			C151.1,122.5,163.3,123.1,164.2,126.8z"/>
		<path fill="#D0CFCF" d="M163.7,126.9c0.9,3.7-9.6,9.1-23.5,12.1s-25.9,2.5-26.9-1.2c-0.9-3.7,9.6-9.1,23.5-12.1
			S162.7,123.2,163.7,126.9z"/>
		<path fill="#CFCECF" d="M163.1,127c0.9,3.6-9.4,9-23.1,12c-13.7,3-25.6,2.4-26.5-1.2s9.4-9,23.1-12S162.2,123.4,163.1,127z"/>
		<path fill="#CFCDCE" d="M162.6,127.1c0.9,3.6-9.3,8.9-22.8,11.8s-25.2,2.4-26.2-1.2c-0.9-3.6,9.3-8.9,22.8-11.8
			C149.9,123,161.7,123.5,162.6,127.1z"/>
		<path fill="#CECCCD" d="M162,127.3c0.9,3.6-9.2,8.8-22.5,11.7c-13.3,2.9-24.9,2.3-25.8-1.2c-0.9-3.6,9.2-8.8,22.5-11.7
			C149.6,123.2,161.1,123.7,162,127.3z"/>
		<path fill="#CDCCCC" d="M161.5,127.4c0.9,3.5-9,8.7-22.2,11.5c-13.1,2.8-24.5,2.3-25.4-1.2s9-8.7,22.2-11.5
			C149.2,123.3,160.6,123.9,161.5,127.4z"/>
		<path fill="#CCCBCB" d="M160.9,127.5c0.9,3.5-8.9,8.6-21.8,11.4s-24.2,2.3-25.1-1.2c-0.9-3.5,8.9-8.6,21.8-11.4
			S160,124,160.9,127.5z"/>
		<path fill="#CBCACA" d="M160.4,127.6c0.9,3.4-8.8,8.5-21.5,11.2c-12.8,2.8-23.8,2.2-24.7-1.2c-0.9-3.4,8.8-8.5,21.5-11.2
			C148.4,123.6,159.5,124.2,160.4,127.6z"/>
		<path fill="#CAC9C9" d="M159.8,127.7c0.9,3.4-8.6,8.4-21.2,11.1s-23.5,2.2-24.3-1.2c-0.9-3.4,8.6-8.4,21.2-11.1
			C148.1,123.8,159,124.3,159.8,127.7z"/>
		<path fill="#CAC8C9" d="M159.3,127.9c0.9,3.4-8.5,8.3-20.9,10.9c-12.4,2.7-23.1,2.1-24-1.2c-0.9-3.4,8.5-8.3,20.9-10.9
			C147.7,124,158.4,124.5,159.3,127.9z"/>
		<path fill="#C9C7C8" d="M158.7,128c0.8,3.3-8.3,8.2-20.5,10.8c-12.2,2.6-22.8,2.1-23.6-1.2c-0.8-3.3,8.3-8.2,20.5-10.8
			C147.3,124.1,157.9,124.7,158.7,128z"/>
		<path fill="#C8C7C7" d="M158.2,128.1c0.8,3.3-8.2,8-20.2,10.6s-22.4,2.1-23.2-1.2c-0.8-3.3,8.2-8,20.2-10.6
			C146.9,124.3,157.4,124.8,158.2,128.1z"/>
		<path fill="#C7C6C6" d="M157.6,128.2c0.8,3.2-8.1,7.9-19.9,10.5c-11.8,2.6-22,2-22.9-1.2c-0.8-3.2,8.1-7.9,19.9-10.5
			S156.8,125,157.6,128.2z"/>
		<path fill="#C6C5C5" d="M157.1,128.3c0.8,3.2-7.9,7.8-19.6,10.3c-11.6,2.5-21.7,2-22.5-1.2c-0.8-3.2,7.9-7.8,19.6-10.3
			S156.3,125.1,157.1,128.3z"/>
		<path fill="#C6C4C4" d="M156.5,128.5c0.8,3.2-7.8,7.7-19.2,10.2c-11.4,2.5-21.3,1.9-22.2-1.2c-0.8-3.2,7.8-7.7,19.2-10.2
			S155.7,125.3,156.5,128.5z"/>
		<path fill="#C5C3C4" d="M156,128.6c0.8,3.1-7.7,7.6-18.9,10.1c-11.2,2.4-21,1.9-21.8-1.2c-0.8-3.1,7.7-7.6,18.9-10.1
			C145.4,124.9,155.2,125.5,156,128.6z"/>
		<path fill="#C4C2C3" d="M155.4,128.7c0.8,3.1-7.5,7.5-18.6,9.9s-20.6,1.8-21.4-1.2c-0.8-3.1,7.5-7.5,18.6-9.9
			C145.1,125.1,154.7,125.6,155.4,128.7z"/>
		<path fill="#C3C2C2" d="M154.9,128.8c0.8,3-7.4,7.4-18.2,9.8c-10.9,2.4-20.3,1.8-21.1-1.2c-0.8-3,7.4-7.4,18.2-9.8
			S154.1,125.8,154.9,128.8z"/>
		<path fill="#C2C1C1" d="M154.4,128.9c0.8,3-7.3,7.3-17.9,9.6c-10.7,2.3-19.9,1.8-20.7-1.2c-0.8-3,7.3-7.3,17.9-9.6
			C144.3,125.4,153.6,125.9,154.4,128.9z"/>
		<path fill="#C1C0C0" d="M153.8,129.1c0.8,3-7.1,7.2-17.6,9.5c-10.5,2.3-19.6,1.7-20.3-1.2c-0.8-3,7.1-7.2,17.6-9.5
			S153,126.1,153.8,129.1z"/>
		<path fill="#C0BFBF" d="M153.3,129.2c0.7,2.9-7,7.1-17.3,9.3c-10.3,2.2-19.2,1.7-20-1.2c-0.7-2.9,7-7.1,17.3-9.3
			C143.6,125.7,152.5,126.3,153.3,129.2z"/>
		<path fill="#C0BEBE" d="M152.7,129.3c0.7,2.9-6.8,7-16.9,9.2s-18.9,1.6-19.6-1.2s6.8-7,16.9-9.2
			C143.2,125.9,152,126.4,152.7,129.3z"/>
		<path fill="#BFBDBE" d="M152.2,129.4c0.7,2.8-6.7,6.9-16.6,9c-9.9,2.1-18.5,1.6-19.2-1.3c-0.7-2.8,6.7-6.9,16.6-9
			C142.8,126,151.4,126.6,152.2,129.4z"/>
		<path fill="#BEBCBD" d="M151.6,129.5c0.7,2.8-6.6,6.8-16.3,8.9c-9.7,2.1-18.2,1.5-18.9-1.3c-0.7-2.8,6.6-6.8,16.3-8.9
			C142.4,126.2,150.9,126.7,151.6,129.5z"/>
		<path fill="#BDBCBC" d="M151.1,129.7c0.7,2.8-6.4,6.7-16,8.7c-9.5,2.1-17.8,1.5-18.5-1.3c-0.7-2.8,6.4-6.7,16-8.7
			S150.4,126.9,151.1,129.7z"/>
		<path fill="#BCBBBB" d="M150.5,129.8c0.7,2.7-6.3,6.6-15.6,8.6c-9.3,2-17.5,1.5-18.2-1.3c-0.7-2.7,6.3-6.6,15.6-8.6
			C141.7,126.5,149.8,127.1,150.5,129.8z"/>
		<path fill="#BBBABA" d="M150,129.9c0.7,2.7-6.2,6.5-15.3,8.4s-17.1,1.4-17.8-1.3c-0.7-2.7,6.2-6.5,15.3-8.4
			C141.3,126.7,149.3,127.2,150,129.9z"/>
		<path fill="#BAB9B9" d="M149.4,130c0.7,2.6-6,6.3-15,8.3c-8.9,1.9-16.7,1.4-17.4-1.3c-0.7-2.6,6-6.3,15-8.3
			C140.9,126.8,148.7,127.4,149.4,130z"/>
		<path fill="#BAB8B9" d="M148.9,130.1c0.7,2.6-5.9,6.2-14.7,8.1s-16.4,1.3-17.1-1.3c-0.7-2.6,5.9-6.2,14.7-8.1
			C140.6,127,148.2,127.5,148.9,130.1z"/>
		<path fill="#B9B8B8" d="M148.3,130.2c0.7,2.6-5.8,6.1-14.3,8c-8.6,1.9-16,1.3-16.7-1.3c-0.7-2.6,5.8-6.1,14.3-8
			C140.2,127.1,147.7,127.7,148.3,130.2z"/>
		<path fill="#B8B7B7" d="M147.8,130.4c0.6,2.5-5.6,6-14,7.8c-8.4,1.8-15.7,1.2-16.3-1.3c-0.6-2.5,5.6-6,14-7.8
			C139.8,127.3,147.1,127.9,147.8,130.4z"/>
		<path fill="#B7B6B6" d="M147.2,130.5c0.6,2.5-5.5,5.9-13.7,7.7s-15.3,1.2-16-1.3c-0.6-2.5,5.5-5.9,13.7-7.7
			C139.4,127.4,146.6,128,147.2,130.5z"/>
		<path fill="#B6B5B5" d="M146.7,130.6c0.6,2.4-5.4,5.8-13.3,7.5c-8,1.7-15,1.2-15.6-1.3c-0.6-2.4,5.4-5.8,13.3-7.5
			C139.1,127.6,146,128.2,146.7,130.6z"/>
		<path fill="#B5B4B4" d="M146.1,130.7c0.6,2.4-5.2,5.7-13,7.4c-7.8,1.7-14.6,1.1-15.2-1.3c-0.6-2.4,5.2-5.7,13-7.4
			C138.7,127.8,145.5,128.3,146.1,130.7z"/>
		<path fill="#B4B3B4" d="M145.6,130.8c0.6,2.4-5.1,5.6-12.7,7.3c-7.6,1.7-14.3,1.1-14.9-1.3c-0.6-2.4,5.1-5.6,12.7-7.3
			C138.3,127.9,145,128.5,145.6,130.8z"/>
		<path fill="#B3B3B3" d="M145,131c0.6,2.3-4.9,5.5-12.4,7.1c-7.4,1.6-13.9,1-14.5-1.3c-0.6-2.3,4.9-5.5,12.4-7.1
			C137.9,128.1,144.4,128.7,145,131z"/>
		<path fill="#B3B2B2" d="M144.5,131.1c0.6,2.3-4.8,5.4-12,7c-7.2,1.6-13.6,1-14.2-1.3c-0.6-2.3,4.8-5.4,12-7
			C137.6,128.2,143.9,128.8,144.5,131.1z"/>
		<path fill="#B2B1B1" d="M143.9,131.2c0.6,2.2-4.7,5.3-11.7,6.8c-7,1.5-13.2,1-13.8-1.3c-0.6-2.2,4.7-5.3,11.7-6.8
			C137.2,128.4,143.4,129,143.9,131.2z"/>
		<path fill="#B1B0B0" d="M143.4,131.3c0.6,2.2-4.5,5.2-11.4,6.7c-6.9,1.5-12.9,0.9-13.4-1.3s4.5-5.2,11.4-6.7
			C136.8,128.6,142.8,129.1,143.4,131.3z"/>
		<path fill="#B0AFAF" d="M142.8,131.4c0.6,2.2-4.4,5.1-11.1,6.5c-6.7,1.4-12.5,0.9-13.1-1.3c-0.6-2.2,4.4-5.1,11.1-6.5
			C136.4,128.7,142.3,129.3,142.8,131.4z"/>
		<path fill="#AFAEAF" d="M142.3,131.6c0.5,2.1-4.3,5-10.7,6.4c-6.5,1.4-12.2,0.8-12.7-1.3s4.3-5,10.7-6.4
			C136.1,128.9,141.7,129.4,142.3,131.6z"/>
		<path fill="#AEAEAE" d="M141.7,131.7c0.5,2.1-4.1,4.9-10.4,6.2c-6.3,1.4-11.8,0.8-12.3-1.3c-0.5-2.1,4.1-4.9,10.4-6.2
			S141.2,129.6,141.7,131.7z"/>
		<path fill="#ADADAD" d="M141.2,131.8c0.5,2-4,4.8-10.1,6.1c-6.1,1.3-11.4,0.7-12-1.3c-0.5-2,4-4.8,10.1-6.1
			C135.3,129.2,140.7,129.8,141.2,131.8z"/>
		<path fill="#ADACAC" d="M140.6,131.9c0.5,2-3.9,4.6-9.8,5.9c-5.9,1.3-11.1,0.7-11.6-1.3c-0.5-2,3.9-4.6,9.8-5.9
			C134.9,129.3,140.1,129.9,140.6,131.9z"/>
		<path fill="#ACABAB" d="M140.1,132c0.5,2-3.7,4.5-9.4,5.8c-5.7,1.2-10.7,0.7-11.2-1.3c-0.5-2,3.7-4.5,9.4-5.8
			C134.6,129.5,139.6,130.1,140.1,132z"/>
		<path fill="#ABAAAA" d="M139.5,132.2c0.5,1.9-3.6,4.4-9.1,5.6c-5.5,1.2-10.4,0.6-10.9-1.3s3.6-4.4,9.1-5.6
			C134.2,129.7,139.1,130.2,139.5,132.2z"/>
		<path fill="#AAAAAA" d="M139,132.3c0.5,1.9-3.5,4.3-8.8,5.5s-10,0.6-10.5-1.3c-0.5-1.9,3.5-4.3,8.8-5.5S138.5,130.4,139,132.3z"/>
		<path fill="#A9A9A9" d="M138.4,132.4c0.5,1.8-3.3,4.2-8.5,5.3c-5.1,1.1-9.7,0.5-10.2-1.3s3.3-4.2,8.5-5.3
			C133.4,130,138,130.6,138.4,132.4z"/>
		<path fill="#A8A8A8" d="M137.9,132.5c0.5,1.8-3.2,4.1-8.1,5.2s-9.3,0.5-9.8-1.3c-0.5-1.8,3.2-4.1,8.1-5.2
			C133.1,130.1,137.4,130.7,137.9,132.5z"/>
		<path fill="#A7A7A7" d="M137.3,132.6c0.4,1.8-3,4-7.8,5c-4.8,1-9,0.4-9.4-1.3c-0.4-1.8,3-4,7.8-5
			C132.7,130.3,136.9,130.9,137.3,132.6z"/>
	</g>
	<g>
		<g>
			<g>
				<path fill="#B4589D" stroke="#9C4989" stroke-width="1.7413" stroke-miterlimit="10" d="M127.2,0.9c-27.5,0-49.8,20.5-49.8,45.8
					c0,40,47.3,91.4,49.8,91.4c3.3,0,49.8-52.9,49.8-91.4C177,21.4,154.7,0.9,127.2,0.9z"/>
			</g>
		</g>
		<path fill="#FFFFFF" d="M153.2,46.6c-0.9,2.7-2.8,5-5.1,6.7l-20.9,15.5l-20.9-15.5c-2.3-1.7-4.2-4-5.1-6.7
			c-3.8-11.1,7.5-23.8,20-18.2c0.3,0.1,0.6,0.3,0.9,0.4l5.1,2.6l5.1-2.6c0.3-0.1,0.6-0.3,0.9-0.4C145.7,22.8,157,35.6,153.2,46.6z"
			/>
	</g>
</g>
</svg>
