<?xml version="1.0" encoding="utf-8"?>
<!-- Generator: Adobe Illustrator 18.1.1, SVG Export Plug-In . SVG Version: 6.00 Build 0)  -->
<svg version="1.1" id="Capa_1" xmlns="http://www.w3.org/2000/svg" xmlns:xlink="http://www.w3.org/1999/xlink" x="0px" y="0px"
	 viewBox="0 0 580 134.7" enable-background="new 0 0 580 134.7" xml:space="preserve">
<g>
	<rect x="0" y="0" fill="#B11062" width="580" height="134.7"/>
	<g>
		<path fill="#FFFFFF" d="M102.5,94.2c-1.8,1.4-3.8,2.7-6,3.7c-2.2,1-4.5,1.8-7.1,2.3s-5.4,0.8-8.6,0.8c-4.8,0-9.3-0.9-13.4-2.6
			c-4.1-1.8-7.7-4.1-10.7-7.2c-3-3-5.4-6.6-7-10.8c-1.7-4.1-2.5-8.5-2.5-13.2v-0.2c0-4.7,0.8-9.1,2.5-13.2s4-7.7,7-10.8
			c3-3.1,6.6-5.5,10.8-7.3c4.2-1.8,8.8-2.7,13.9-2.7c3.1,0,5.9,0.3,8.4,0.8c2.5,0.5,4.8,1.2,6.9,2.1c2.1,0.9,4,1.9,5.7,3.2
			c1.8,1.3,3.4,2.6,4.9,4.1l-9.2,10.6c-2.6-2.3-5.2-4.1-7.8-5.4c-2.7-1.3-5.7-2-9-2c-2.8,0-5.3,0.5-7.7,1.6
			c-2.3,1.1-4.4,2.5-6.1,4.4c-1.7,1.9-3,4.1-3.9,6.5c-0.9,2.5-1.4,5.1-1.4,7.9v0.2c0,2.8,0.5,5.5,1.4,8c0.9,2.5,2.2,4.7,3.9,6.6
			c1.7,1.9,3.7,3.4,6,4.5c2.3,1.1,4.9,1.6,7.7,1.6c3.8,0,6.9-0.7,9.5-2.1c2.6-1.4,5.2-3.3,7.7-5.6l9.2,9.3
			C106.1,91.2,104.3,92.8,102.5,94.2z"/>
		<path fill="#FFFFFF" d="M123.7,100V34.2h49.5v12.9H138v13.3h31v12.9h-31v13.8h35.7V100H123.7z"/>
		<path fill="#FFFFFF" d="M231,100l-14.1-21h-11.4v21h-14.5V34.2h30c7.8,0,13.9,1.9,18.3,5.7c4.4,3.8,6.5,9.1,6.5,16v0.2
			c0,5.3-1.3,9.7-3.9,13c-2.6,3.3-6,5.8-10.2,7.4l16.1,23.5H231z M231.3,56.7c0-3.1-1-5.5-3-7c-2-1.6-4.8-2.3-8.4-2.3h-14.4v18.9
			h14.6c3.6,0,6.3-0.8,8.2-2.5c1.9-1.7,2.9-3.9,2.9-6.8V56.7z"/>
		<path fill="#FFFFFF" d="M336.1,100V34.2h14.5V100H336.1z"/>
		<path fill="#FFFFFF" d="M401.1,47.6V100h-14.5V47.6h-20V34.2h54.5v13.3H401.1z"/>
		<path fill="#FFFFFF" d="M472.9,100l-6-14.7h-27.8l-6,14.7h-14.7l28.2-66.2h13.3L488,100H472.9z M453,51.1l-8.7,21.3h17.5L453,51.1
			z"/>
		<path fill="#FFFFFF" d="M496.6,99.8v-9.3h9.4v9.3H496.6z"/>
		<path fill="#FFFFFF" d="M530.8,82.9c0.4,0.5,0.8,1.1,1.1,1.8c0.3,0.7,0.5,1.4,0.7,2.1c0.2,0.8,0.2,1.6,0.2,2.6
			c0,1.4-0.3,2.8-0.8,4c-0.5,1.2-1.2,2.3-2.2,3.2c-0.9,0.9-2,1.6-3.2,2.1c-1.2,0.5-2.6,0.8-4,0.8h-0.1c-1.4,0-2.7-0.3-4-0.8
			c-1.2-0.5-2.3-1.2-3.2-2.1c-0.9-0.9-1.7-2-2.2-3.2c-0.5-1.3-0.8-2.6-0.8-4.2c0-0.9,0.1-1.8,0.2-2.5c0.1-0.8,0.4-1.5,0.6-2.1
			c0.3-0.6,0.6-1.2,1-1.7c0.4-0.5,0.8-1,1.2-1.5l3.2,2.8c-0.7,0.8-1.2,1.6-1.6,2.4c-0.4,0.8-0.6,1.7-0.6,2.7c0,0.8,0.2,1.6,0.5,2.3
			c0.3,0.7,0.8,1.3,1.3,1.8c0.6,0.5,1.2,0.9,2,1.2c0.7,0.3,1.5,0.4,2.4,0.4h0.1c0.8,0,1.6-0.1,2.4-0.4c0.7-0.3,1.4-0.7,2-1.2
			c0.6-0.5,1-1.1,1.3-1.8c0.3-0.7,0.5-1.5,0.5-2.3c0-1.1-0.2-2.1-0.6-2.9c-0.4-0.8-1-1.6-1.7-2.3l2.8-2.8
			C529.9,81.8,530.4,82.4,530.8,82.9z"/>
		<path fill="#FFFFFF" d="M526.6,58.6c1.2,0.5,2.3,1.3,3.2,2.2c0.9,0.9,1.7,2,2.2,3.3c0.5,1.3,0.8,2.7,0.8,4.2s-0.3,2.9-0.8,4.2
			c-0.5,1.3-1.3,2.4-2.2,3.3c-0.9,0.9-2,1.6-3.2,2.2c-1.2,0.5-2.5,0.8-4,0.8h-0.1c-1.4,0-2.7-0.3-4-0.8c-1.2-0.5-2.3-1.3-3.2-2.2
			c-0.9-0.9-1.7-2-2.2-3.3c-0.5-1.3-0.8-2.7-0.8-4.2s0.3-2.9,0.8-4.2c0.5-1.3,1.3-2.4,2.2-3.3c0.9-0.9,2-1.6,3.2-2.2
			c1.2-0.5,2.5-0.8,4-0.8h0.1C524.1,57.8,525.4,58,526.6,58.6z M522.7,62.3c-0.8,0-1.6,0.1-2.4,0.4c-0.8,0.3-1.4,0.7-2,1.2
			c-0.6,0.5-1,1.2-1.3,1.9c-0.3,0.7-0.5,1.5-0.5,2.4c0,0.9,0.2,1.7,0.5,2.4c0.3,0.7,0.8,1.3,1.3,1.9c0.6,0.5,1.2,0.9,2,1.2
			c0.7,0.3,1.5,0.4,2.4,0.4h0.1c0.8,0,1.6-0.1,2.4-0.4c0.7-0.3,1.4-0.7,2-1.2c0.6-0.5,1-1.2,1.3-1.9c0.3-0.7,0.5-1.5,0.5-2.4
			c0-0.9-0.2-1.7-0.5-2.4c-0.3-0.7-0.8-1.4-1.3-1.9c-0.6-0.5-1.2-0.9-2-1.2C524.4,62.5,523.6,62.3,522.7,62.3L522.7,62.3z"/>
		<path fill="#FFFFFF" d="M532.5,38.5h-12.9l8.4,5.5v0.1l-8.3,5.5h12.8v4.3h-19.7v-4.7l8.3-5.2l-8.3-5.2v-4.7h19.7V38.5z"/>
		<g>
			<path fill="#FFFFFF" d="M326,101.7h-22l-19.6-26.8l-5,5.2v21.5h-18.2V21.6h18.2v36.1l23.9-25.2h22.3l-28.8,29.8L326,101.7z
				 M306.2,97.9h12.9L292.5,62l24.3-25.7h-12.1l-29.2,31.6V25.3h-10.7V98h10.9V78.6l9.5-9.2L306.2,97.9z"/>
		</g>
	</g>
</g>
</svg>
